<svg width="16" height="16" viewBox="0 0 16 16" fill="none" xmlns="http://www.w3.org/2000/svg">
<g id="Icon/Font Awesome Free/Solid/P/plus-circle">
<path id="Vector" d="M7.99992 1.33325C4.31712 1.33325 1.33325 4.31712 1.33325 7.99992C1.33325 11.6827 4.31712 14.6666 7.99992 14.6666C11.6827 14.6666 14.6666 11.6827 14.6666 7.99992C14.6666 4.31712 11.6827 1.33325 7.99992 1.33325ZM11.8709 8.75261C11.8709 8.93003 11.7257 9.07519 11.5483 9.07519H9.07519V11.5483C9.07519 11.7257 8.93003 11.8709 8.75261 11.8709H7.24723C7.06981 11.8709 6.92465 11.7257 6.92465 11.5483V9.07519H4.45153C4.27411 9.07519 4.12895 8.93003 4.12895 8.75261V7.24723C4.12895 7.06981 4.27411 6.92465 4.45153 6.92465H6.92465V4.45153C6.92465 4.27411 7.06981 4.12895 7.24723 4.12895H8.75261C8.93003 4.12895 9.07519 4.27411 9.07519 4.45153V6.92465H11.5483C11.7257 6.92465 11.8709 7.06981 11.8709 7.24723V8.75261Z" fill="white"/>
</g>
</svg>
