<svg width="16" height="16" viewBox="0 0 16 16" fill="none" xmlns="http://www.w3.org/2000/svg">
<g id="Icon/Font Awesome Free/Solid/B/bars">
<path id="Vector" d="M1.80944 4.30961H14.1904C14.4534 4.30961 14.6666 4.09642 14.6666 3.83341V2.64294C14.6666 2.37993 14.4534 2.16675 14.1904 2.16675H1.80944C1.54644 2.16675 1.33325 2.37993 1.33325 2.64294V3.83341C1.33325 4.09642 1.54644 4.30961 1.80944 4.30961ZM1.80944 9.07151H14.1904C14.4534 9.07151 14.6666 8.85833 14.6666 8.59532V7.40484C14.6666 7.14184 14.4534 6.92865 14.1904 6.92865H1.80944C1.54644 6.92865 1.33325 7.14184 1.33325 7.40484V8.59532C1.33325 8.85833 1.54644 9.07151 1.80944 9.07151ZM1.80944 13.8334H14.1904C14.4534 13.8334 14.6666 13.6202 14.6666 13.3572V12.1667C14.6666 11.9037 14.4534 11.6906 14.1904 11.6906H1.80944C1.54644 11.6906 1.33325 11.9037 1.33325 12.1667V13.3572C1.33325 13.6202 1.54644 13.8334 1.80944 13.8334Z" fill="#333333"/>
</g>
</svg>
