<svg width="16" height="16" viewBox="0 0 16 16" fill="none" xmlns="http://www.w3.org/2000/svg">
<g id="Icon/Font Awesome Free/Solid/P/plus-circle">
<path id="Vector" d="M8.00001 1.3335C4.31721 1.3335 1.33334 4.31737 1.33334 8.00016C1.33334 11.683 4.31721 14.6668 8.00001 14.6668C11.6828 14.6668 14.6667 11.683 14.6667 8.00016C14.6667 4.31737 11.6828 1.3335 8.00001 1.3335ZM11.871 8.75285C11.871 8.93027 11.7258 9.07543 11.5484 9.07543H9.07528V11.5485C9.07528 11.726 8.93012 11.8711 8.7527 11.8711H7.24732C7.0699 11.8711 6.92474 11.726 6.92474 11.5485V9.07543H4.45162C4.2742 9.07543 4.12904 8.93027 4.12904 8.75285V7.24747C4.12904 7.07006 4.2742 6.92489 4.45162 6.92489H6.92474V4.45178C6.92474 4.27436 7.0699 4.12919 7.24732 4.12919H8.7527C8.93012 4.12919 9.07528 4.27436 9.07528 4.45178V6.92489H11.5484C11.7258 6.92489 11.871 7.07006 11.871 7.24747V8.75285Z" fill="white"/>
</g>
</svg>
